<?xml version="1.0" encoding="iso-8859-1"?>
<!-- Generator: Adobe Illustrator 16.0.0, SVG Export Plug-In . SVG Version: 6.00 Build 0)  -->
<!DOCTYPE svg PUBLIC "-//W3C//DTD SVG 1.1//EN" "http://www.w3.org/Graphics/SVG/1.1/DTD/svg11.dtd">
<svg version="1.1" id="Capa_1" xmlns="http://www.w3.org/2000/svg" xmlns:xlink="http://www.w3.org/1999/xlink" x="0px" y="0px"
	 width="419.649px" height="419.648px" viewBox="0 0 419.649 419.648" style="enable-background:new 0 0 419.649 419.648;"
	 xml:space="preserve">
<g>
	<g>
		<g id="Layer_5_61_">
			<path d="M346.087,154.619H115.665v-25.58c0-51.92,42.24-94.16,94.16-94.16c35.139,0,67.115,19.352,83.452,50.5
				c4.473,8.531,15.015,11.818,23.544,7.346c8.53-4.475,11.817-15.016,7.345-23.545C301.787,26.508,257.973,0,209.825,0
				C138.673,0,80.786,57.887,80.786,129.039v25.58h-7.224c-4.942,0-8.985,4.045-8.985,8.986v247.057c0,4.94,4.043,8.986,8.985,8.986
				h272.525c4.941,0,8.985-4.045,8.985-8.986V163.605C355.073,158.664,351.029,154.619,346.087,154.619z M232.643,299.93
				c0,5.674,0.021,37.701,0.021,37.701c0,12.614-10.227,22.842-22.841,22.842c-12.615,0-22.842-10.228-22.842-22.842
				c0,0,0.024-32.027,0.024-37.701c0-12.114-23.276-11.385-23.276-40.043c0-25.457,20.638-46.095,46.094-46.095
				s46.093,20.638,46.093,46.095C255.917,288.545,232.643,287.814,232.643,299.93z"/>
		</g>
	</g>
</g>
<g>
</g>
<g>
</g>
<g>
</g>
<g>
</g>
<g>
</g>
<g>
</g>
<g>
</g>
<g>
</g>
<g>
</g>
<g>
</g>
<g>
</g>
<g>
</g>
<g>
</g>
<g>
</g>
<g>
</g>
</svg>
